<?xml version="1.0" encoding="utf-8"?>
<!-- Generator: Adobe Illustrator 23.0.1, SVG Export Plug-In . SVG Version: 6.00 Build 0)  -->
<svg version="1.1" id="Ebene_1" xmlns="http://www.w3.org/2000/svg" xmlns:xlink="http://www.w3.org/1999/xlink" x="0px" y="0px"
	 viewBox="0 0 90 90" style="enable-background:new 0 0 90 90;" xml:space="preserve">
<style type="text/css">
	.st0{fill:#C5D773;}
</style>
<g>
	<path class="st0" d="M27.6,85.2c0.5,0.5,1.3,0.5,1.8,0l5.3-5.2c1-1,1.4-2.6,0.9-3.9l1.3-1.3c0.7-0.7,1.7-1.1,2.6-1.1h16.9
		c3,0,5.8-1.1,8-3.2c0.1-0.1-0.7,0.8,11.5-13.8c1.8-2.1,1.5-5.3-0.6-7.2c-2.1-1.8-5.3-1.5-7.1,0.6l-7.5,7.7
		c-0.9-1.2-2.4-1.9-3.9-1.9H42.5c-2-0.8-4.2-1.3-6.4-1.3c-6.1,0-11.5,2.8-14.3,8.1c-1.2-0.2-2.5,0.1-3.4,1.1l-5.2,5.2
		c-0.5,0.5-0.5,1.3,0,1.8L27.6,85.2z M36.2,57.3c1.9,0,3.8,0.4,5.6,1.2c0.2,0.1,0.3,0.1,0.5,0.1h14.4c1.4,0,2.5,1.1,2.5,2.5
		c0,1.4-1.1,2.5-2.5,2.5H46.3c-0.7,0-1.3,0.6-1.3,1.3c0,0.7,0.6,1.3,1.3,1.3h10.4c2.8,0,5.1-2.3,5.1-5.1c0-0.2,0-0.4,0-0.7
		C69,53,70,51.9,70,51.9c0.9-1.1,2.5-1.2,3.6-0.3c1.1,0.9,1.2,2.5,0.3,3.6L62.5,68.8c-1.7,1.6-3.8,2.5-6.2,2.5H39.5
		c-1.7,0-3.2,0.6-4.4,1.8l-1.1,1l-9.9-9.9C26.4,59.7,30.8,57.3,36.2,57.3z M20.3,65.7c0.4-0.4,1.1-0.5,1.6-0.2
		c0.2,0.1-0.4-0.4,11,11c0.5,0.5,0.5,1.3,0,1.8l-4.4,4.3L16,70L20.3,65.7z"/>
	<path class="st0" d="M62,27.7C61,18.5,49.9,5.9,49.4,5.4l-0.9-1l-1,1C47.1,5.9,35.9,18,35,27.7c-0.3,3.6,0.4,7.3,2.1,10.2
		c2.2,3.8,6.1,6.4,10.2,6.9v5.5h2.5v-5.5c4.5-0.4,8.6-3.4,10.8-7.8C61.8,34.4,62.3,30.9,62,27.7z M58.2,36c-1.6,3.5-4.9,5.9-8.5,6.3
		V23.6h-2.5v18.7c-3.2-0.4-6.2-2.5-8-5.6c-1.4-2.5-2.1-5.6-1.7-8.7c0.7-7.3,8.3-16.6,11-19.8c2.6,3.2,10.3,12.8,11,19.8
		C59.7,30.7,59.3,33.8,58.2,36z"/>
</g>
</svg>
